<svg xmlns="http://www.w3.org/2000/svg" xmlns:xlink="http://www.w3.org/1999/xlink" style="display:none"><defs><style>.cls-1{fill:#1d1d1b}</style><path id="SVGID_1_" d="M0 0h24v24H0z"/><path id="SVGID_3_" d="M0 0h24v24H0z"/></defs><symbol id="icon-arrow" viewBox="0 0 36.81 24.07"><title>arrow</title><path d="M42.31 16.51l-.1-.17-.13-.15L30 5.25a1 1 0 0 0-1.44 1.39l.1.09 10.14 9.2-32.21-.06a1 1 0 1 0 0 2l32.23.05-10.05 9.31A1 1 0 0 0 30 28.78l.09-.09 11.99-11.05.1-.11a1 1 0 0 0 .12-.18.88.88 0 0 0 .1-.2 1 1 0 0 0 0-.24 1 1 0 0 0 0-.2 1.24 1.24 0 0 0-.09-.2z" transform="translate(-5.59 -4.94)"/></symbol><symbol id="icon-bars" viewBox="0 0 24 28"><path d="M24 21v2q0 .406-.297.703T23 24H1q-.406 0-.703-.297T0 23v-2q0-.406.297-.703T1 20h22q.406 0 .703.297T24 21zm0-8v2q0 .406-.297.703T23 16H1q-.406 0-.703-.297T0 15v-2q0-.406.297-.703T1 12h22q.406 0 .703.297T24 13zm0-8v2q0 .406-.297.703T23 8H1q-.406 0-.703-.297T0 7V5q0-.406.297-.703T1 4h22q.406 0 .703.297T24 5z"/></symbol><symbol id="icon-calendar" viewBox="0 0 24 24"><style>.st0{clip-path:url(#SVGID_2_)}.st1{clip-path:url(#SVGID_4_)}</style><g id="calendar"><clipPath id="SVGID_2_"><use xlink:href="#SVGID_1_" overflow="visible"/></clipPath><path d="M12.5 16H17v3h-4.5zM7 16h4.5v3H7zM12.5 12H17v3h-4.5zM7 12h4.5v3H7z"/><g class="st0"><clipPath id="SVGID_4_"><use xlink:href="#SVGID_3_" overflow="visible"/></clipPath><path d="M0 23.5c0 .3.2.5.5.5h23c.3 0 .5-.2.5-.5V8H0v15.5zM2.5 16c-.3 0-.5-.2-.5-.5s.2-.5.5-.5H6v-3H2.5c-.3 0-.5-.2-.5-.5s.2-.5.5-.5H6V9.5c0-.3.2-.5.5-.5s.5.2.5.5V11h4.5V9.5c0-.3.2-.5.5-.5s.5.2.5.5V11H17V9.5c0-.3.2-.5.5-.5s.5.2.5.5V11h3.5c.3 0 .5.2.5.5s-.2.5-.5.5H18v3h3.5c.3 0 .5.2.5.5s-.2.5-.5.5H18v3h3.5c.3 0 .5.2.5.5s-.2.5-.5.5H18v1.5c0 .3-.2.5-.5.5s-.5-.2-.5-.5V20h-4.5v1.5c0 .3-.2.5-.5.5s-.5-.2-.5-.5V20H7v1.5c0 .3-.2.5-.5.5s-.5-.2-.5-.5V20H2.5c-.3 0-.5-.2-.5-.5s.2-.5.5-.5H6v-3H2.5zM23.5 2H20V.5c0-.3-.2-.5-.5-.5h-3c-.3 0-.5.2-.5.5V2H8V.5c0-.3-.2-.5-.5-.5h-3c-.3 0-.5.2-.5.5V2H.5c-.3 0-.5.2-.5.5V7h24V2.5c0-.3-.2-.5-.5-.5M7 4H5V1h2v3zm12 0h-2V1h2v3z"/></g></g></symbol><symbol id="icon-check" viewBox="0 0 24 21"><style/><path d="M23.7 4L20.2.5c-.2-.2-.5-.2-.7 0l-12 12-3.1-3.1c-.2-.2-.5-.2-.7 0L.2 12.9c-.2.2-.2.5 0 .7l6.9 6.9c.1.1.2.1.3.1.1 0 .3 0 .3-.1l16-15.8c.2-.2.2-.5 0-.7" id="checkmark"/></symbol><symbol id="icon-close" viewBox="0 0 22 28"><path d="M20.281 20.656q0 .625-.438 1.062l-2.125 2.125q-.438.438-1.062.438t-1.062-.438L11 19.249l-4.594 4.594q-.438.438-1.062.438t-1.062-.438l-2.125-2.125q-.438-.438-.438-1.062t.438-1.062L6.751 15l-4.594-4.594q-.438-.438-.438-1.062t.438-1.062l2.125-2.125q.438-.438 1.062-.438t1.062.438L11 10.751l4.594-4.594q.438-.438 1.062-.438t1.062.438l2.125 2.125q.438.438.438 1.062t-.438 1.062L15.249 15l4.594 4.594q.438.438.438 1.062z"/></symbol><symbol id="icon-comment-bubble" viewBox="0 0 29 24"><path d="M27.5.3H1.7c-.3 0-.6.3-.6.6v17.9c0 .3.3.6.6.6H9v3.9c0 .2.1.4.3.5h.2c.1 0 .3-.1.4-.2l4.3-4.3h13.2c.3 0 .6-.3.6-.6V.8c0-.3-.2-.5-.5-.5z"/></symbol><symbol id="icon-down-carrot" viewBox="0 0 28 24"><path d="M27.9 7.1c0-.1-.1-.1-.2-.1H16.9c-.1 0-.2 0-.2.1v.2l5.4 9c0 .1.1.1.2.1s.2 0 .2-.1l5.4-9v-.2zM.1.4h1v23.2h-1z"/></symbol><symbol id="icon-facebook-square" viewBox="0 0 24 28"><path d="M19.5 2q1.859 0 3.18 1.32T24 6.5v15q0 1.859-1.32 3.18T19.5 26h-2.938v-9.297h3.109l.469-3.625h-3.578v-2.312q0-.875.367-1.313t1.43-.438l1.906-.016V5.765q-.984-.141-2.781-.141-2.125 0-3.398 1.25t-1.273 3.531v2.672H9.688v3.625h3.125v9.297H4.5q-1.859 0-3.18-1.32T0 21.499v-15q0-1.859 1.32-3.18t3.18-1.32h15z"/></symbol><symbol id="icon-facebook" viewBox="0 0 20 20"><path d="M10 .4C4.698.4.4 4.698.4 10s4.298 9.6 9.6 9.6 9.6-4.298 9.6-9.6S15.302.4 10 .4zm2.274 6.634h-1.443c-.171 0-.361.225-.361.524V8.6h1.805l-.273 1.486H10.47v4.461H8.767v-4.461H7.222V8.6h1.545v-.874c0-1.254.87-2.273 2.064-2.273h1.443v1.581z"/></symbol><symbol id="icon-googleplus-square" viewBox="0 0 27 32"><path d="M16.375 16.161q0-.464-.107-1.143H9.804v2.357h3.875q-.054.429-.295.893t-.67.946-1.188.795-1.723.313q-1.768 0-3.018-1.268T5.535 16t1.25-3.054 3.018-1.268q1.643 0 2.732 1.054l1.857-1.804q-1.929-1.786-4.589-1.786-2.857 0-4.857 2.009t-2 4.848 2 4.848 4.857 2.009q2.946 0 4.759-1.875t1.812-4.821zm6.161.821h1.946v-1.964h-1.946v-1.964h-1.964v1.964h-1.964v1.964h1.964v1.964h1.964v-1.964zm4.893-9.553v17.143q0 2.125-1.509 3.634t-3.634 1.509H5.143q-2.125 0-3.634-1.509T0 24.572V7.429q0-2.125 1.509-3.634t3.634-1.509h17.143q2.125 0 3.634 1.509t1.509 3.634z"/></symbol><symbol id="icon-googleplus" viewBox="0 0 20 20"><path d="M10 .4C4.698.4.4 4.698.4 10s4.298 9.6 9.6 9.6 9.6-4.298 9.6-9.6S15.302.4 10 .4zm-.553 13.721c-.603.293-1.252.324-1.503.324h-.075-.054c-.392 0-2.343-.09-2.343-1.867 0-1.746 2.125-1.883 2.776-1.883h.017c-.376-.502-.298-1.008-.298-1.008a2.34 2.34 0 0 1-.14.004c-.245 0-.718-.039-1.124-.301-.498-.32-.75-.865-.75-1.619 0-2.131 2.327-2.217 2.35-2.219h2.324v.051c0 .26-.467.311-.785.354-.108.016-.325.037-.386.068.589.315.684.809.684 1.545 0 .838-.328 1.281-.676 1.592-.216.193-.385.344-.385.547 0 .199.232.402.502.639.441.389 1.046.918 1.046 1.811 0 .923-.397 1.583-1.18 1.962zM14.5 10H13v1.5h-1V10h-1.5V9H12V7.5h1V9h1.5v1zm-6.277 1.15a2.08 2.08 0 0 0-.157.006 1.918 1.918 0 0 0-1.15.469c-.294.266-.444.602-.423.941.045.711.808 1.127 1.735 1.061.912-.066 1.52-.592 1.476-1.303-.042-.668-.623-1.174-1.481-1.174zm.874-3.865c-.242-.85-.632-1.102-1.238-1.102a.75.75 0 0 0-.194.027c-.263.075-.472.294-.588.62-.119.33-.126.674-.024 1.066.185.701.683 1.209 1.185 1.209a.664.664 0 0 0 .194-.027c.549-.154.893-.992.665-1.793z"/></symbol><symbol id="icon-instagram-square" viewBox="0 0 27 32"><path d="M18.286 16q0-1.893-1.339-3.232t-3.232-1.339-3.232 1.339T9.144 16t1.339 3.232 3.232 1.339 3.232-1.339T18.286 16zm2.464 0q0 2.929-2.054 4.982t-4.982 2.054-4.982-2.054T6.678 16t2.054-4.982 4.982-2.054 4.982 2.054T20.75 16zm1.929-7.321q0 .679-.482 1.161t-1.161.482-1.161-.482-.482-1.161.482-1.161 1.161-.482 1.161.482.482 1.161zM13.714 4.75l-1.366-.009q-1.241-.009-1.884 0t-1.723.054-1.839.179-1.277.33q-.893.357-1.571 1.036T3.018 7.911q-.196.518-.33 1.277t-.179 1.839-.054 1.723 0 1.884T2.464 16t-.009 1.366 0 1.884.054 1.723.179 1.839.33 1.277q.357.893 1.036 1.571t1.571 1.036q.518.196 1.277.33t1.839.179 1.723.054 1.884 0 1.366-.009 1.366.009 1.884 0 1.723-.054 1.839-.179 1.277-.33q.893-.357 1.571-1.036t1.036-1.571q.196-.518.33-1.277t.179-1.839.054-1.723 0-1.884T24.964 16t.009-1.366 0-1.884-.054-1.723-.179-1.839-.33-1.277q-.357-.893-1.036-1.571t-1.571-1.036q-.518-.196-1.277-.33t-1.839-.179-1.723-.054-1.884 0-1.366.009zM27.429 16q0 4.089-.089 5.661-.179 3.714-2.214 5.75t-5.75 2.214q-1.571.089-5.661.089t-5.661-.089q-3.714-.179-5.75-2.214T.09 21.661Q.001 20.09.001 16t.089-5.661q.179-3.714 2.214-5.75t5.75-2.214q1.571-.089 5.661-.089t5.661.089q3.714.179 5.75 2.214t2.214 5.75q.089 1.571.089 5.661z"/></symbol><symbol id="icon-instagram" viewBox="0 0 20 20"><path d="M13 10a3 3 0 1 1-6 0c0-.171.018-.338.049-.5H6v3.997c0 .278.225.503.503.503h6.995a.503.503 0 0 0 .502-.503V9.5h-1.049c.031.162.049.329.049.5zm-3 2a2 2 0 1 0-.001-4.001A2 2 0 0 0 10 12zm2.4-4.1h1.199a.301.301 0 0 0 .301-.3V6.401a.301.301 0 0 0-.301-.301H12.4a.301.301 0 0 0-.301.301V7.6c.001.165.136.3.301.3zM10 .4C4.698.4.4 4.698.4 10s4.298 9.6 9.6 9.6 9.6-4.298 9.6-9.6S15.302.4 10 .4zm5 13.489C15 14.5 14.5 15 13.889 15H6.111C5.5 15 5 14.5 5 13.889V6.111C5 5.5 5.5 5 6.111 5h7.778C14.5 5 15 5.5 15 6.111v7.778z"/></symbol><symbol id="icon-left-arrow" viewBox="0 0 14 22"><style>.st0{fill:none;stroke:#000;stroke-linecap:round;stroke-linejoin:round;stroke-miterlimit:10}</style><path d="M12.9 21.4L1.1 11 12.9.6"/></symbol><symbol id="icon-linkedin-square" viewBox="0 0 24 28"><path d="M3.703 22.094h3.609V11.25H3.703v10.844zM7.547 7.906q-.016-.812-.562-1.344t-1.453-.531-1.477.531-.57 1.344q0 .797.555 1.336t1.445.539h.016q.922 0 1.484-.539t.562-1.336zm9.141 14.188h3.609v-6.219q0-2.406-1.141-3.641T16.14 11q-2.125 0-3.266 1.828h.031V11.25H9.296q.047 1.031 0 10.844h3.609v-6.062q0-.594.109-.875.234-.547.703-.93t1.156-.383q1.813 0 1.813 2.453v5.797zM24 6.5v15q0 1.859-1.32 3.18T19.5 26h-15q-1.859 0-3.18-1.32T0 21.5v-15q0-1.859 1.32-3.18T4.5 2h15q1.859 0 3.18 1.32T24 6.5z"/></symbol><symbol id="icon-linkedin" viewBox="0 0 20 20"><path d="M10 .4C4.698.4.4 4.698.4 10s4.298 9.6 9.6 9.6 9.6-4.298 9.6-9.6S15.302.4 10 .4zM7.65 13.979H5.706V7.723H7.65v6.256zm-.984-7.024c-.614 0-1.011-.435-1.011-.973 0-.549.409-.971 1.036-.971s1.011.422 1.023.971c0 .538-.396.973-1.048.973zm8.084 7.024h-1.944v-3.467c0-.807-.282-1.355-.985-1.355-.537 0-.856.371-.997.728-.052.127-.065.307-.065.486v3.607H8.814v-4.26c0-.781-.025-1.434-.051-1.996h1.689l.089.869h.039c.256-.408.883-1.01 1.932-1.01 1.279 0 2.238.857 2.238 2.699v3.699z"/></symbol><symbol id="icon-nav-arrow" viewBox="0 0 11 8"><style>.st0{fill:none;stroke:#fff;stroke-linecap:round;stroke-linejoin:round;stroke-miterlimit:10}</style><path d="M.7 1.3l4.8 5.4 4.8-5.4"/></symbol><symbol id="icon-reply" viewBox="0 0 21 27"><style>.st0{clip-path:url(#SVGID_2_)}.st1{clip-path:url(#SVGID_4_)}</style><path d="M9.8.3c-.2.1-.3.3-.3.5l.4 4.1c-2.4 1.6-4.4 3.4-6 5.3C-.8 16-.4 22 5.2 26.6c.2.2.5.1.7-.1.1-.1.1-.5-.1-.6-3.6-3-1.9-6.2-.6-7.8 1.3-1.6 3.3-3 5.6-4.1l.4 4.8c0 .2.2.4.3.4.2.1.4 0 .5-.2l8.1-9.9c.2-.2.1-.5-.1-.7L10.1.3c.1-.1-.2-.1-.3 0" id="reply"/></symbol><symbol id="icon-right-arrow" viewBox="0 0 14 22"><style>.st0{fill:none;stroke:#000;stroke-linecap:round;stroke-linejoin:round;stroke-miterlimit:10}</style><path d="M1.1 21.4L12.9 11 1.1.6"/></symbol><symbol id="icon-rss" viewBox="0 0 35 35"><path d="M17.5 5.5c-6.6 0-12 5.4-12 12s5.4 12 12 12 12-5.4 12-12-5.4-12-12-12m-2 18h-3v-3c1.9 0 3 .9 3 3m3 0c0-3.3-2.7-6-6-6v-1c3.9 0 7 3.1 7 7h-1zm4 0c0-5.5-4.5-10-10-10v-1c6.1 0 11 4.9 11 11h-1z"/></symbol><symbol id="icon-search" viewBox="0 0 19 19"><path d="M4.7 7.2c0 1.6.6 3.1 1.5 4.2L.4 17.1c-.3.3-.3.8 0 1.1.3.3.8.3 1.1 0l5.8-5.7c1.1.9 2.6 1.5 4.2 1.5a6.7 6.7 0 0 0 0-13.4C7.8.4 4.7 3.4 4.7 7.2zm12 0c0 2.9-2.3 5.2-5.2 5.2-2.9 0-5.2-2.3-5.2-5.2C6.3 4.3 8.6 2 11.5 2c2.9-.1 5.2 2.3 5.2 5.2z"/></symbol><symbol id="icon-twitter-square" viewBox="0 0 24 28"><path d="M20 9.531q-.875.391-1.891.531 1.062-.625 1.453-1.828-1.016.594-2.094.797Q16.515 8 15.077 8q-1.359 0-2.32.961t-.961 2.32q0 .453.078.75-2.016-.109-3.781-1.016t-3-2.422q-.453.781-.453 1.656 0 1.781 1.422 2.734-.734-.016-1.563-.406v.031q0 1.172.781 2.086t1.922 1.133q-.453.125-.797.125-.203 0-.609-.063.328.984 1.164 1.625t1.898.656q-1.813 1.406-4.078 1.406-.406 0-.781-.047 2.312 1.469 5.031 1.469 1.75 0 3.281-.555t2.625-1.484 1.883-2.141 1.172-2.531.383-2.633q0-.281-.016-.422.984-.703 1.641-1.703zM24 6.5v15q0 1.859-1.32 3.18T19.5 26h-15q-1.859 0-3.18-1.32T0 21.5v-15q0-1.859 1.32-3.18T4.5 2h15q1.859 0 3.18 1.32T24 6.5z"/></symbol><symbol id="icon-twitter" viewBox="0 0 20 20"><path d="M10 .4C4.698.4.4 4.698.4 10s4.298 9.6 9.6 9.6 9.6-4.298 9.6-9.6S15.302.4 10 .4zm3.905 7.864c.004.082.005.164.005.244 0 2.5-1.901 5.381-5.379 5.381a5.335 5.335 0 0 1-2.898-.85c.147.018.298.025.451.025.886 0 1.701-.301 2.348-.809a1.895 1.895 0 0 1-1.766-1.312 1.9 1.9 0 0 0 .853-.033 1.892 1.892 0 0 1-1.517-1.854v-.023c.255.141.547.227.857.237a1.89 1.89 0 0 1-.585-2.526 5.376 5.376 0 0 0 3.897 1.977 1.891 1.891 0 0 1 3.222-1.725 3.797 3.797 0 0 0 1.2-.459 1.9 1.9 0 0 1-.831 1.047 3.799 3.799 0 0 0 1.086-.299 3.834 3.834 0 0 1-.943.979z"/></symbol><symbol id="icon-video" viewBox="0 0 27 16"><path d="M15.5 1h-13C1.7 1 1 1.7 1 2.5v11c0 .8.7 1.5 1.5 1.5h13c.8 0 1.5-.7 1.5-1.5v-11c0-.8-.6-1.5-1.5-1.5zM24.8 2.1c-.1-.1-.3-.1-.5 0l-6 3c-.2 0-.3.2-.3.4v5c0 .2.1.4.3.4l6 3c.1 0 .1.1.2.1s.2 0 .3-.1c.1-.1.2-.3.2-.4v-11c0-.2-.1-.3-.2-.4z"/></symbol></svg>