<svg id="Layer_1" data-name="Layer 1" xmlns="http://www.w3.org/2000/svg" viewBox="0 0 36.81 24.07"><defs><style>.cls-1{fill:#1d1d1b;}</style></defs><title>arrow</title><path class="cls-1" d="M42.31,16.51l-0.1-.17-0.13-.15L30,5.25a1,1,0,0,0-1.44,1.39l0.1,0.09,10.14,9.2L6.59,15.87a1,1,0,1,0,0,2l32.23,0.05L28.77,27.23A1,1,0,0,0,30,28.78l0.09-.09L42.08,17.64l0.1-.11a1,1,0,0,0,.12-0.18,0.88,0.88,0,0,0,.1-0.2,1,1,0,0,0,0-.24,1,1,0,0,0,0-.2A1.24,1.24,0,0,0,42.31,16.51Z" transform="translate(-5.59 -4.94)"/></svg>