<?xml version="1.0" encoding="utf-8"?>
<!-- Generator: Adobe Illustrator 21.0.0, SVG Export Plug-In . SVG Version: 6.00 Build 0)  -->
<svg version="1.1" id="Layer_1" xmlns="http://www.w3.org/2000/svg" xmlns:xlink="http://www.w3.org/1999/xlink" x="0px" y="0px"
	 viewBox="0 0 21 27" style="enable-background:new 0 0 21 27;" xml:space="preserve">
<style type="text/css">
	.st0{clip-path:url(#SVGID_2_);}
	.st1{clip-path:url(#SVGID_4_);}
</style>
<g id="reply">
	<path class="st1" d="M9.8,0.3C9.6,0.4,9.5,0.6,9.5,0.8l0.4,4.1c-2.4,1.6-4.4,3.4-6,5.3C-0.8,16-0.4,22,5.2,26.6
		c0.2,0.2,0.5,0.1,0.7-0.1v0C6,26.4,6,26,5.8,25.9c-3.6-3-1.9-6.2-0.6-7.8c1.3-1.6,3.3-3,5.6-4.1l0.4,4.8c0,0.2,0.2,0.4,0.3,0.4
		c0.2,0.1,0.4,0,0.5-0.2l8.1-9.9c0.2-0.2,0.1-0.5-0.1-0.7l-9.9-8.1C10.2,0.2,9.9,0.2,9.8,0.3"/>
</g>
</svg>
