<?xml version="1.0" encoding="utf-8"?>
<!-- Generator: Adobe Illustrator 21.0.0, SVG Export Plug-In . SVG Version: 6.00 Build 0)  -->
<svg version="1.1" id="Layer_1" xmlns="http://www.w3.org/2000/svg" xmlns:xlink="http://www.w3.org/1999/xlink" x="0px" y="0px"
	 viewBox="0 0 35 35" style="enable-background:new 0 0 35 35;" xml:space="preserve">
<g id="rss">
	<path class="st1" d="M17.5,5.5c-6.6,0-12,5.4-12,12s5.4,12,12,12s12-5.4,12-12S24.1,5.5,17.5,5.5 M15.5,23.5h-3v-3
		C14.4,20.5,15.5,21.4,15.5,23.5 M18.5,23.5c0-3.3-2.7-6-6-6v-1c3.9,0,7,3.1,7,7H18.5z M22.5,23.5c0-5.5-4.5-10-10-10v-1
		c6.1,0,11,4.9,11,11H22.5z"/>
</g>
</svg>
