<?xml version="1.0" encoding="utf-8"?>
<!-- Generator: Adobe Illustrator 21.0.0, SVG Export Plug-In . SVG Version: 6.00 Build 0)  -->
<svg version="1.1" id="Layer_1" xmlns="http://www.w3.org/2000/svg" xmlns:xlink="http://www.w3.org/1999/xlink" x="0px" y="0px"
	 viewBox="0 0 19 19" style="enable-background:new 0 0 19 19;" xml:space="preserve">
<g>
	<path fill="#FFF" d="M4.7,7.2c0,1.6,0.6,3.1,1.5,4.2l-5.8,5.7c-0.3,0.3-0.3,0.8,0,1.1c0.3,0.3,0.8,0.3,1.1,0l5.8-5.7c1.1,0.9,2.6,1.5,4.2,1.5
		c3.7,0,6.7-3,6.7-6.7s-3-6.7-6.7-6.7C7.8,0.4,4.7,3.4,4.7,7.2z M16.7,7.2c0,2.9-2.3,5.2-5.2,5.2c-2.9,0-5.2-2.3-5.2-5.2
		c0-2.9,2.3-5.2,5.2-5.2C14.4,1.9,16.7,4.3,16.7,7.2z"/>
</g>
</svg>
