<?xml version="1.0" encoding="utf-8"?>
<!-- Generator: Adobe Illustrator 21.0.0, SVG Export Plug-In . SVG Version: 6.00 Build 0)  -->
<svg version="1.1" id="Layer_1" xmlns="http://www.w3.org/2000/svg" xmlns:xlink="http://www.w3.org/1999/xlink" x="0px" y="0px"
	 viewBox="0 0 27 16" style="enable-background:new 0 0 27 16;" xml:space="preserve">
<g>
	<path d="M15.5,1h-13C1.7,1,1,1.7,1,2.5v11C1,14.3,1.7,15,2.5,15h13c0.8,0,1.5-0.7,1.5-1.5v-11C17,1.7,16.4,1,15.5,1z"/>
	<path d="M24.8,2.1c-0.1-0.1-0.3-0.1-0.5,0l-6,3C18.1,5.1,18,5.3,18,5.5v5c0,0.2,0.1,0.4,0.3,0.4l6,3c0.1,0,0.1,0.1,0.2,0.1
		c0.1,0,0.2,0,0.3-0.1c0.1-0.1,0.2-0.3,0.2-0.4v-11C25,2.3,24.9,2.2,24.8,2.1z"/>
</g>
</svg>
